<?xml version="1.0" standalone="no"?>
<!DOCTYPE svg PUBLIC "-//W3C//DTD SVG 20010904//EN"
 "http://www.w3.org/TR/2001/REC-SVG-20010904/DTD/svg10.dtd">
<svg version="1.0" xmlns="http://www.w3.org/2000/svg"
 width="340.000000pt" height="340.000000pt" viewBox="0 0 340.000000 340.000000"
 preserveAspectRatio="xMidYMid meet">

<g transform="translate(0.000000,340.000000) scale(0.100000,-0.100000)"
fill="#000000" stroke="none">
<path d="M1905 2683 c-78 -20 -234 -77 -255 -92 -15 -10 -50 -31 -79 -45 -50
-26 -57 -27 -154 -20 -117 7 -194 -7 -281 -54 -69 -36 -208 -178 -278 -283
-71 -106 -102 -125 -215 -132 -112 -7 -193 -50 -319 -170 -74 -70 -100 -102
-127 -160 -73 -150 -85 -298 -31 -381 33 -50 38 -53 139 -91 l80 -31 6 -50 c4
-28 11 -60 17 -71 15 -27 70 -73 87 -73 7 0 32 -16 55 -35 50 -41 72 -43 133
-11 25 14 66 28 91 31 33 5 52 15 67 33 l20 27 19 -25 c10 -14 24 -45 30 -70
28 -112 111 -190 201 -190 79 0 109 -10 130 -44 23 -38 24 -72 3 -122 -20 -47
-15 -136 9 -162 19 -21 80 -42 120 -42 15 0 44 7 66 16 42 17 72 62 86 131 3
17 13 37 21 43 24 21 79 2 131 -44 113 -101 184 -127 249 -87 45 27 60 70 46
133 -18 76 -15 102 18 143 40 50 41 105 4 140 -15 14 -32 25 -38 25 -6 0 -24
7 -41 16 -16 9 -56 18 -88 21 -68 7 -82 20 -30 28 21 3 49 8 63 11 115 23 163
35 201 49 193 71 219 78 234 65 19 -16 19 -48 -1 -96 -29 -68 1 -162 60 -191
31 -14 38 -14 123 11 70 21 96 24 117 17 31 -12 31 -18 10 -80 -15 -42 -15
-49 -1 -82 24 -58 76 -92 145 -93 94 -2 116 13 164 113 43 91 63 121 84 121 6
0 36 -25 65 -56 65 -68 114 -94 173 -94 38 0 48 5 76 37 31 35 32 39 28 105
-7 86 -38 137 -106 172 -26 13 -58 36 -71 50 -23 24 -23 26 -7 51 9 14 23 25
31 25 7 0 26 10 40 23 39 33 42 85 11 176 -14 41 -26 85 -26 97 0 41 -39 74
-102 84 -97 15 -148 54 -148 112 0 38 33 58 139 83 84 20 87 22 119 69 32 48
32 49 32 171 0 96 4 134 20 180 11 32 20 74 20 94 0 46 -49 148 -88 183 -18
17 -34 45 -41 75 -17 67 -50 121 -87 143 -39 25 -151 27 -233 6 -181 -47 -307
-57 -400 -30 -81 24 -207 60 -276 80 -59 17 -221 28 -260 17z m265 -73 c36
-12 207 -91 380 -175 173 -84 338 -161 365 -171 l50 -19 -82 -7 c-129 -11
-196 -33 -368 -122 -88 -46 -189 -93 -225 -104 -96 -31 -99 -32 -50 -26 57 8
184 50 326 108 138 57 203 70 321 63 68 -4 106 -12 145 -30 148 -67 198 -223
102 -313 -67 -64 -152 -76 -335 -48 -132 21 -317 21 -384 1 -331 -98 -384 -98
-627 -5 -227 86 -356 120 -503 133 -89 7 -200 -7 -248 -32 l-30 -15 21 33 c29
47 97 92 189 124 184 64 218 80 255 113 51 46 61 67 88 182 38 159 86 227 200
285 117 59 282 69 410 25z m888 -63 c30 -28 29 -77 -5 -145 -20 -41 -27 -70
-27 -109 1 -33 -3 -53 -10 -53 -18 0 -206 107 -358 204 -76 48 -138 88 -138
89 0 1 37 1 83 -1 47 -2 123 4 177 13 203 36 240 36 278 2z m-1587 -99 c-5
-13 -14 -57 -20 -98 -25 -154 -38 -171 -187 -230 -221 -89 -296 -165 -350
-356 -10 -35 -22 -64 -25 -64 -13 0 -31 163 -25 223 7 74 46 218 71 267 30 58
103 145 150 179 98 70 186 98 317 100 76 1 77 1 69 -21z m1726 -139 c26 -51
33 -159 10 -159 -7 0 -36 12 -65 26 l-52 26 0 50 c0 57 12 86 43 98 32 13 39
8 64 -41z m-2427 -323 c0 -89 26 -194 85 -337 6 -15 -8 -16 -147 -12 -245 8
-426 -29 -503 -102 l-35 -33 5 37 c10 58 79 191 132 252 104 120 218 193 356
229 109 29 107 29 107 -34z m520 -136 c117 -15 221 -46 389 -114 335 -137 399
-145 686 -87 125 25 172 31 215 25 l55 -6 -85 -18 c-47 -10 -145 -41 -219 -69
-201 -77 -219 -79 -672 -55 -134 7 -201 -2 -272 -38 -94 -47 -167 -149 -167
-234 0 -56 24 -130 59 -187 36 -55 32 -57 -69 -28 -123 35 -237 106 -278 174
-41 67 -37 304 8 449 34 110 79 160 167 184 59 16 87 16 183 4z m1420 -218 c0
-13 -279 -277 -345 -327 -160 -120 -379 -185 -620 -185 -89 0 -322 29 -355 44
-30 14 -51 85 -39 131 12 42 66 89 134 114 52 19 77 22 248 21 306 0 419 18
586 94 119 53 177 73 289 96 105 22 102 22 102 12z m164 -28 c3 -9 6 -46 6
-83 0 -86 29 -188 90 -317 27 -57 48 -104 46 -104 -1 0 -22 10 -47 21 -191 93
-355 139 -488 139 -47 -1 -103 -7 -123 -14 -50 -18 -40 -5 25 32 30 17 129 90
221 162 148 117 238 180 257 180 4 0 10 -7 13 -16z m-2186 -79 c53 -9 113 -20
134 -26 l36 -9 4 -98 c2 -53 2 -99 0 -102 -2 -3 -55 -7 -117 -8 -257 -8 -555
70 -555 145 0 34 51 80 109 97 63 20 267 20 389 1z m2320 -47 c17 -17 15 -24
-15 -53 -27 -25 -28 -25 -5 -25 13 0 40 9 62 20 48 24 68 25 92 3 40 -36 9
-80 -61 -85 -57 -4 -69 -28 -14 -28 72 0 114 -12 130 -36 14 -22 14 -26 -1
-49 -9 -14 -25 -25 -36 -25 -32 0 -149 70 -175 104 -48 63 -62 136 -32 174 12
15 39 16 55 0z m-2222 -236 c35 -23 48 -137 18 -166 -20 -21 -30 -20 -55 5
-17 17 -20 28 -14 53 4 17 10 42 12 56 l6 25 -26 -24 c-14 -13 -37 -46 -50
-75 -14 -28 -34 -59 -45 -69 -40 -36 -87 6 -61 55 7 12 33 42 58 65 25 23 40
42 33 43 -7 0 -52 -21 -101 -46 -75 -39 -91 -45 -110 -35 -32 18 -28 57 9 76
16 8 42 15 57 15 15 1 55 7 88 14 67 15 164 20 181 8z m1819 -47 c44 -13 94
-28 110 -31 l30 -7 -30 -8 c-50 -14 -142 -22 -179 -15 -42 8 -62 36 -46 66 14
26 19 25 115 -5z m-1510 -212 c104 -55 171 -67 335 -64 379 9 464 7 497 -11
35 -20 51 -64 33 -97 -14 -27 -61 -27 -166 -1 -83 20 -274 38 -261 25 4 -5 40
-17 80 -27 138 -35 283 -123 305 -187 21 -60 -35 -107 -98 -81 -17 7 -43 31
-57 52 -41 61 -164 141 -283 183 -65 23 -71 20 -49 -22 14 -28 19 -59 19 -121
0 -79 -2 -85 -29 -113 -41 -41 -102 -37 -138 10 -20 25 -15 48 22 118 19 36
35 75 35 85 0 37 -42 64 -126 82 -149 32 -194 57 -232 132 -17 34 -52 146 -52
168 0 4 24 -17 53 -46 28 -29 79 -68 112 -85z m1831 97 c180 -45 343 -156 360
-246 6 -33 4 -40 -20 -61 -59 -50 -102 -38 -159 45 -53 76 -94 118 -160 160
-61 40 -113 62 -105 46 34 -71 40 -92 35 -139 -14 -128 -68 -215 -133 -215
-104 0 -121 91 -33 176 78 75 86 128 26 164 -62 38 -106 27 -230 -57 -59 -40
-87 -53 -114 -53 -47 0 -73 24 -73 66 0 81 150 131 401 133 95 1 145 -4 205
-19z m-1332 -29 c23 -25 17 -52 -14 -68 -28 -14 -124 -16 -155 -3 -19 7 -18 9
8 19 16 6 30 11 32 11 3 0 26 14 52 30 56 35 55 35 77 11z"/>
<path d="M1878 2468 c-49 -13 -126 -82 -149 -133 -24 -53 -24 -147 0 -200 25
-56 90 -111 152 -129 65 -20 73 -20 138 0 62 18 127 73 152 129 24 53 24 147
0 200 -25 55 -100 120 -156 134 -51 13 -86 13 -137 -1z m174 -142 c21 -10 57
-35 80 -55 l41 -37 -44 -36 c-115 -93 -215 -101 -325 -25 -67 46 -74 60 -44
92 13 14 51 39 84 56 51 26 70 30 116 27 30 -3 72 -12 92 -22z"/>
</g>
</svg>
